<svg xmlns="http://www.w3.org/2000/svg" viewBox="0 0 330 330" width="330" height="330">
  <rect width="330" height="330" rx="16" fill="#f0e8ff"/>
  <rect x="40" y="40" width="10" height="10" rx="2" ry="2" fill="#ff3ca0"/>
  <rect x="50" y="40" width="10" height="10" rx="2" ry="2" fill="#ff3ca0"/>
  <rect x="60" y="40" width="10" height="10" rx="2" ry="2" fill="#ff3ca0"/>
  <rect x="70" y="40" width="10" height="10" rx="2" ry="2" fill="#ff3ca0"/>
  <rect x="80" y="40" width="10" height="10" rx="2" ry="2" fill="#ff3ca0"/>
  <rect x="90" y="40" width="10" height="10" rx="2" ry="2" fill="#ff3ca0"/>
  <rect x="100" y="40" width="10" height="10" rx="2" ry="2" fill="#ff3ca0"/>
  <rect x="130" y="40" width="10" height="10" rx="2" ry="2" fill="#38c8e8"/>
  <rect x="140" y="40" width="10" height="10" rx="2" ry="2" fill="#ff3ca0"/>
  <rect x="180" y="40" width="10" height="10" rx="2" ry="2" fill="#38c8e8"/>
  <rect x="200" y="40" width="10" height="10" rx="2" ry="2" fill="#52d9b0"/>
  <rect x="220" y="40" width="10" height="10" rx="2" ry="2" fill="#ff3ca0"/>
  <rect x="230" y="40" width="10" height="10" rx="2" ry="2" fill="#ff3ca0"/>
  <rect x="240" y="40" width="10" height="10" rx="2" ry="2" fill="#ff3ca0"/>
  <rect x="250" y="40" width="10" height="10" rx="2" ry="2" fill="#ff3ca0"/>
  <rect x="260" y="40" width="10" height="10" rx="2" ry="2" fill="#ff3ca0"/>
  <rect x="270" y="40" width="10" height="10" rx="2" ry="2" fill="#ff3ca0"/>
  <rect x="280" y="40" width="10" height="10" rx="2" ry="2" fill="#ff3ca0"/>
  <rect x="40" y="50" width="10" height="10" rx="2" ry="2" fill="#ff3ca0"/>
  <rect x="100" y="50" width="10" height="10" rx="2" ry="2" fill="#ff3ca0"/>
  <rect x="130" y="50" width="10" height="10" rx="2" ry="2" fill="#ffb347"/>
  <rect x="190" y="50" width="10" height="10" rx="2" ry="2" fill="#38c8e8"/>
  <rect x="200" y="50" width="10" height="10" rx="2" ry="2" fill="#ff3ca0"/>
  <rect x="220" y="50" width="10" height="10" rx="2" ry="2" fill="#ff3ca0"/>
  <rect x="280" y="50" width="10" height="10" rx="2" ry="2" fill="#ff3ca0"/>
  <rect x="40" y="60" width="10" height="10" rx="2" ry="2" fill="#ff3ca0"/>
  <rect x="60" y="60" width="10" height="10" rx="2" ry="2" fill="#ff3ca0"/>
  <rect x="70" y="60" width="10" height="10" rx="2" ry="2" fill="#ff3ca0"/>
  <rect x="80" y="60" width="10" height="10" rx="2" ry="2" fill="#ff3ca0"/>
  <rect x="100" y="60" width="10" height="10" rx="2" ry="2" fill="#ff3ca0"/>
  <rect x="120" y="60" width="10" height="10" rx="2" ry="2" fill="#52d9b0"/>
  <rect x="150" y="60" width="10" height="10" rx="2" ry="2" fill="#38c8e8"/>
  <rect x="160" y="60" width="10" height="10" rx="2" ry="2" fill="#ff3ca0"/>
  <rect x="190" y="60" width="10" height="10" rx="2" ry="2" fill="#ffb347"/>
  <rect x="220" y="60" width="10" height="10" rx="2" ry="2" fill="#ff3ca0"/>
  <rect x="240" y="60" width="10" height="10" rx="2" ry="2" fill="#ff3ca0"/>
  <rect x="250" y="60" width="10" height="10" rx="2" ry="2" fill="#ff3ca0"/>
  <rect x="260" y="60" width="10" height="10" rx="2" ry="2" fill="#ff3ca0"/>
  <rect x="280" y="60" width="10" height="10" rx="2" ry="2" fill="#ff3ca0"/>
  <rect x="40" y="70" width="10" height="10" rx="2" ry="2" fill="#ff3ca0"/>
  <rect x="60" y="70" width="10" height="10" rx="2" ry="2" fill="#ff3ca0"/>
  <rect x="70" y="70" width="10" height="10" rx="2" ry="2" fill="#ff3ca0"/>
  <rect x="80" y="70" width="10" height="10" rx="2" ry="2" fill="#ff3ca0"/>
  <rect x="100" y="70" width="10" height="10" rx="2" ry="2" fill="#ff3ca0"/>
  <rect x="120" y="70" width="10" height="10" rx="2" ry="2" fill="#ff3ca0"/>
  <rect x="150" y="70" width="10" height="10" rx="2" ry="2" fill="#ffb347"/>
  <rect x="170" y="70" width="10" height="10" rx="2" ry="2" fill="#ff3ca0"/>
  <rect x="180" y="70" width="10" height="10" rx="2" ry="2" fill="#52d9b0"/>
  <rect x="190" y="70" width="10" height="10" rx="2" ry="2" fill="#b89af0"/>
  <rect x="220" y="70" width="10" height="10" rx="2" ry="2" fill="#ff3ca0"/>
  <rect x="240" y="70" width="10" height="10" rx="2" ry="2" fill="#ff3ca0"/>
  <rect x="250" y="70" width="10" height="10" rx="2" ry="2" fill="#ff3ca0"/>
  <rect x="260" y="70" width="10" height="10" rx="2" ry="2" fill="#ff3ca0"/>
  <rect x="280" y="70" width="10" height="10" rx="2" ry="2" fill="#ff3ca0"/>
  <rect x="40" y="80" width="10" height="10" rx="2" ry="2" fill="#ff3ca0"/>
  <rect x="60" y="80" width="10" height="10" rx="2" ry="2" fill="#ff3ca0"/>
  <rect x="70" y="80" width="10" height="10" rx="2" ry="2" fill="#ff3ca0"/>
  <rect x="80" y="80" width="10" height="10" rx="2" ry="2" fill="#ff3ca0"/>
  <rect x="100" y="80" width="10" height="10" rx="2" ry="2" fill="#ff3ca0"/>
  <rect x="120" y="80" width="10" height="10" rx="2" ry="2" fill="#38c8e8"/>
  <rect x="140" y="80" width="10" height="10" rx="2" ry="2" fill="#52d9b0"/>
  <rect x="180" y="80" width="10" height="10" rx="2" ry="2" fill="#ff3ca0"/>
  <rect x="200" y="80" width="10" height="10" rx="2" ry="2" fill="#b89af0"/>
  <rect x="220" y="80" width="10" height="10" rx="2" ry="2" fill="#ff3ca0"/>
  <rect x="240" y="80" width="10" height="10" rx="2" ry="2" fill="#ff3ca0"/>
  <rect x="250" y="80" width="10" height="10" rx="2" ry="2" fill="#ff3ca0"/>
  <rect x="260" y="80" width="10" height="10" rx="2" ry="2" fill="#ff3ca0"/>
  <rect x="280" y="80" width="10" height="10" rx="2" ry="2" fill="#ff3ca0"/>
  <rect x="40" y="90" width="10" height="10" rx="2" ry="2" fill="#ff3ca0"/>
  <rect x="100" y="90" width="10" height="10" rx="2" ry="2" fill="#ff3ca0"/>
  <rect x="120" y="90" width="10" height="10" rx="2" ry="2" fill="#ffb347"/>
  <rect x="190" y="90" width="10" height="10" rx="2" ry="2" fill="#ff3ca0"/>
  <rect x="220" y="90" width="10" height="10" rx="2" ry="2" fill="#ff3ca0"/>
  <rect x="280" y="90" width="10" height="10" rx="2" ry="2" fill="#ff3ca0"/>
  <rect x="40" y="100" width="10" height="10" rx="2" ry="2" fill="#ff3ca0"/>
  <rect x="50" y="100" width="10" height="10" rx="2" ry="2" fill="#ff3ca0"/>
  <rect x="60" y="100" width="10" height="10" rx="2" ry="2" fill="#ff3ca0"/>
  <rect x="70" y="100" width="10" height="10" rx="2" ry="2" fill="#ff3ca0"/>
  <rect x="80" y="100" width="10" height="10" rx="2" ry="2" fill="#ff3ca0"/>
  <rect x="90" y="100" width="10" height="10" rx="2" ry="2" fill="#ff3ca0"/>
  <rect x="100" y="100" width="10" height="10" rx="2" ry="2" fill="#ff3ca0"/>
  <rect x="120" y="100" width="10" height="10" rx="2" ry="2" fill="#b89af0"/>
  <rect x="140" y="100" width="10" height="10" rx="2" ry="2" fill="#38c8e8"/>
  <rect x="160" y="100" width="10" height="10" rx="2" ry="2" fill="#52d9b0"/>
  <rect x="180" y="100" width="10" height="10" rx="2" ry="2" fill="#ffb347"/>
  <rect x="200" y="100" width="10" height="10" rx="2" ry="2" fill="#ff3ca0"/>
  <rect x="220" y="100" width="10" height="10" rx="2" ry="2" fill="#ff3ca0"/>
  <rect x="230" y="100" width="10" height="10" rx="2" ry="2" fill="#ff3ca0"/>
  <rect x="240" y="100" width="10" height="10" rx="2" ry="2" fill="#ff3ca0"/>
  <rect x="250" y="100" width="10" height="10" rx="2" ry="2" fill="#ff3ca0"/>
  <rect x="260" y="100" width="10" height="10" rx="2" ry="2" fill="#ff3ca0"/>
  <rect x="270" y="100" width="10" height="10" rx="2" ry="2" fill="#ff3ca0"/>
  <rect x="280" y="100" width="10" height="10" rx="2" ry="2" fill="#ff3ca0"/>
  <rect x="120" y="110" width="10" height="10" rx="2" ry="2" fill="#52d9b0"/>
  <rect x="130" y="110" width="10" height="10" rx="2" ry="2" fill="#b89af0"/>
  <rect x="150" y="110" width="10" height="10" rx="2" ry="2" fill="#38c8e8"/>
  <rect x="200" y="110" width="10" height="10" rx="2" ry="2" fill="#38c8e8"/>
  <rect x="40" y="120" width="10" height="10" rx="2" ry="2" fill="#b89af0"/>
  <rect x="60" y="120" width="10" height="10" rx="2" ry="2" fill="#38c8e8"/>
  <rect x="70" y="120" width="10" height="10" rx="2" ry="2" fill="#ff3ca0"/>
  <rect x="80" y="120" width="10" height="10" rx="2" ry="2" fill="#52d9b0"/>
  <rect x="90" y="120" width="10" height="10" rx="2" ry="2" fill="#b89af0"/>
  <rect x="100" y="120" width="10" height="10" rx="2" ry="2" fill="#ffb347"/>
  <rect x="130" y="120" width="10" height="10" rx="2" ry="2" fill="#52d9b0"/>
  <rect x="150" y="120" width="10" height="10" rx="2" ry="2" fill="#ffb347"/>
  <rect x="160" y="120" width="10" height="10" rx="2" ry="2" fill="#38c8e8"/>
  <rect x="220" y="120" width="10" height="10" rx="2" ry="2" fill="#ff3ca0"/>
  <rect x="230" y="120" width="10" height="10" rx="2" ry="2" fill="#52d9b0"/>
  <rect x="240" y="120" width="10" height="10" rx="2" ry="2" fill="#b89af0"/>
  <rect x="250" y="120" width="10" height="10" rx="2" ry="2" fill="#ffb347"/>
  <rect x="260" y="120" width="10" height="10" rx="2" ry="2" fill="#38c8e8"/>
  <rect x="50" y="130" width="10" height="10" rx="2" ry="2" fill="#b89af0"/>
  <rect x="80" y="130" width="10" height="10" rx="2" ry="2" fill="#ff3ca0"/>
  <rect x="90" y="130" width="10" height="10" rx="2" ry="2" fill="#52d9b0"/>
  <rect x="110" y="130" width="10" height="10" rx="2" ry="2" fill="#ffb347"/>
  <rect x="120" y="130" width="10" height="10" rx="2" ry="2" fill="#38c8e8"/>
  <rect x="150" y="130" width="10" height="10" rx="2" ry="2" fill="#b89af0"/>
  <rect x="160" y="130" width="10" height="10" rx="2" ry="2" fill="#ffb347"/>
  <rect x="170" y="130" width="10" height="10" rx="2" ry="2" fill="#38c8e8"/>
  <rect x="210" y="130" width="10" height="10" rx="2" ry="2" fill="#ffb347"/>
  <rect x="230" y="130" width="10" height="10" rx="2" ry="2" fill="#ff3ca0"/>
  <rect x="270" y="130" width="10" height="10" rx="2" ry="2" fill="#38c8e8"/>
  <rect x="40" y="140" width="10" height="10" rx="2" ry="2" fill="#ff3ca0"/>
  <rect x="50" y="140" width="10" height="10" rx="2" ry="2" fill="#52d9b0"/>
  <rect x="60" y="140" width="10" height="10" rx="2" ry="2" fill="#b89af0"/>
  <rect x="70" y="140" width="10" height="10" rx="2" ry="2" fill="#ffb347"/>
  <rect x="80" y="140" width="10" height="10" rx="2" ry="2" fill="#38c8e8"/>
  <rect x="90" y="140" width="10" height="10" rx="2" ry="2" fill="#ff3ca0"/>
  <rect x="100" y="140" width="10" height="10" rx="2" ry="2" fill="#52d9b0"/>
  <rect x="140" y="140" width="10" height="10" rx="2" ry="2" fill="#ff3ca0"/>
  <rect x="160" y="140" width="10" height="10" rx="2" ry="2" fill="#b89af0"/>
  <rect x="170" y="140" width="10" height="10" rx="2" ry="2" fill="#ffb347"/>
  <rect x="180" y="140" width="10" height="10" rx="2" ry="2" fill="#38c8e8"/>
  <rect x="190" y="140" width="10" height="10" rx="2" ry="2" fill="#ff3ca0"/>
  <rect x="220" y="140" width="10" height="10" rx="2" ry="2" fill="#ffb347"/>
  <rect x="230" y="140" width="10" height="10" rx="2" ry="2" fill="#38c8e8"/>
  <rect x="240" y="140" width="10" height="10" rx="2" ry="2" fill="#ff3ca0"/>
  <rect x="250" y="140" width="10" height="10" rx="2" ry="2" fill="#52d9b0"/>
  <rect x="270" y="140" width="10" height="10" rx="2" ry="2" fill="#ffb347"/>
  <rect x="280" y="140" width="10" height="10" rx="2" ry="2" fill="#38c8e8"/>
  <rect x="70" y="150" width="10" height="10" rx="2" ry="2" fill="#b89af0"/>
  <rect x="110" y="150" width="10" height="10" rx="2" ry="2" fill="#52d9b0"/>
  <rect x="120" y="150" width="10" height="10" rx="2" ry="2" fill="#b89af0"/>
  <rect x="130" y="150" width="10" height="10" rx="2" ry="2" fill="#ffb347"/>
  <rect x="150" y="150" width="10" height="10" rx="2" ry="2" fill="#ff3ca0"/>
  <rect x="170" y="150" width="10" height="10" rx="2" ry="2" fill="#b89af0"/>
  <rect x="190" y="150" width="10" height="10" rx="2" ry="2" fill="#38c8e8"/>
  <rect x="230" y="150" width="10" height="10" rx="2" ry="2" fill="#ffb347"/>
  <rect x="280" y="150" width="10" height="10" rx="2" ry="2" fill="#ffb347"/>
  <rect x="50" y="160" width="10" height="10" rx="2" ry="2" fill="#38c8e8"/>
  <rect x="60" y="160" width="10" height="10" rx="2" ry="2" fill="#ff3ca0"/>
  <rect x="70" y="160" width="10" height="10" rx="2" ry="2" fill="#52d9b0"/>
  <rect x="90" y="160" width="10" height="10" rx="2" ry="2" fill="#ffb347"/>
  <rect x="100" y="160" width="10" height="10" rx="2" ry="2" fill="#38c8e8"/>
  <rect x="110" y="160" width="10" height="10" rx="2" ry="2" fill="#ff3ca0"/>
  <rect x="120" y="160" width="10" height="10" rx="2" ry="2" fill="#52d9b0"/>
  <rect x="140" y="160" width="10" height="10" rx="2" ry="2" fill="#ffb347"/>
  <rect x="150" y="160" width="10" height="10" rx="2" ry="2" fill="#38c8e8"/>
  <rect x="160" y="160" width="10" height="10" rx="2" ry="2" fill="#ff3ca0"/>
  <rect x="180" y="160" width="10" height="10" rx="2" ry="2" fill="#b89af0"/>
  <rect x="190" y="160" width="10" height="10" rx="2" ry="2" fill="#ffb347"/>
  <rect x="200" y="160" width="10" height="10" rx="2" ry="2" fill="#38c8e8"/>
  <rect x="210" y="160" width="10" height="10" rx="2" ry="2" fill="#ff3ca0"/>
  <rect x="220" y="160" width="10" height="10" rx="2" ry="2" fill="#52d9b0"/>
  <rect x="240" y="160" width="10" height="10" rx="2" ry="2" fill="#ffb347"/>
  <rect x="260" y="160" width="10" height="10" rx="2" ry="2" fill="#ff3ca0"/>
  <rect x="270" y="160" width="10" height="10" rx="2" ry="2" fill="#52d9b0"/>
  <rect x="280" y="160" width="10" height="10" rx="2" ry="2" fill="#b89af0"/>
  <rect x="40" y="170" width="10" height="10" rx="2" ry="2" fill="#b89af0"/>
  <rect x="70" y="170" width="10" height="10" rx="2" ry="2" fill="#ff3ca0"/>
  <rect x="90" y="170" width="10" height="10" rx="2" ry="2" fill="#b89af0"/>
  <rect x="140" y="170" width="10" height="10" rx="2" ry="2" fill="#b89af0"/>
  <rect x="200" y="170" width="10" height="10" rx="2" ry="2" fill="#ffb347"/>
  <rect x="230" y="170" width="10" height="10" rx="2" ry="2" fill="#52d9b0"/>
  <rect x="250" y="170" width="10" height="10" rx="2" ry="2" fill="#ffb347"/>
  <rect x="270" y="170" width="10" height="10" rx="2" ry="2" fill="#ff3ca0"/>
  <rect x="40" y="180" width="10" height="10" rx="2" ry="2" fill="#52d9b0"/>
  <rect x="80" y="180" width="10" height="10" rx="2" ry="2" fill="#ff3ca0"/>
  <rect x="100" y="180" width="10" height="10" rx="2" ry="2" fill="#b89af0"/>
  <rect x="110" y="180" width="10" height="10" rx="2" ry="2" fill="#ffb347"/>
  <rect x="140" y="180" width="10" height="10" rx="2" ry="2" fill="#52d9b0"/>
  <rect x="150" y="180" width="10" height="10" rx="2" ry="2" fill="#b89af0"/>
  <rect x="160" y="180" width="10" height="10" rx="2" ry="2" fill="#ffb347"/>
  <rect x="190" y="180" width="10" height="10" rx="2" ry="2" fill="#52d9b0"/>
  <rect x="200" y="180" width="10" height="10" rx="2" ry="2" fill="#b89af0"/>
  <rect x="230" y="180" width="10" height="10" rx="2" ry="2" fill="#ff3ca0"/>
  <rect x="240" y="180" width="10" height="10" rx="2" ry="2" fill="#52d9b0"/>
  <rect x="250" y="180" width="10" height="10" rx="2" ry="2" fill="#b89af0"/>
  <rect x="270" y="180" width="10" height="10" rx="2" ry="2" fill="#38c8e8"/>
  <rect x="280" y="180" width="10" height="10" rx="2" ry="2" fill="#ff3ca0"/>
  <rect x="40" y="190" width="10" height="10" rx="2" ry="2" fill="#ff3ca0"/>
  <rect x="70" y="190" width="10" height="10" rx="2" ry="2" fill="#ffb347"/>
  <rect x="110" y="190" width="10" height="10" rx="2" ry="2" fill="#b89af0"/>
  <rect x="120" y="190" width="10" height="10" rx="2" ry="2" fill="#ffb347"/>
  <rect x="140" y="190" width="10" height="10" rx="2" ry="2" fill="#ff3ca0"/>
  <rect x="150" y="190" width="10" height="10" rx="2" ry="2" fill="#52d9b0"/>
  <rect x="180" y="190" width="10" height="10" rx="2" ry="2" fill="#38c8e8"/>
  <rect x="200" y="190" width="10" height="10" rx="2" ry="2" fill="#52d9b0"/>
  <rect x="210" y="190" width="10" height="10" rx="2" ry="2" fill="#b89af0"/>
  <rect x="220" y="190" width="10" height="10" rx="2" ry="2" fill="#ffb347"/>
  <rect x="230" y="190" width="10" height="10" rx="2" ry="2" fill="#38c8e8"/>
  <rect x="240" y="190" width="10" height="10" rx="2" ry="2" fill="#ff3ca0"/>
  <rect x="280" y="190" width="10" height="10" rx="2" ry="2" fill="#38c8e8"/>
  <rect x="40" y="200" width="10" height="10" rx="2" ry="2" fill="#38c8e8"/>
  <rect x="60" y="200" width="10" height="10" rx="2" ry="2" fill="#52d9b0"/>
  <rect x="90" y="200" width="10" height="10" rx="2" ry="2" fill="#38c8e8"/>
  <rect x="100" y="200" width="10" height="10" rx="2" ry="2" fill="#ff3ca0"/>
  <rect x="110" y="200" width="10" height="10" rx="2" ry="2" fill="#52d9b0"/>
  <rect x="120" y="200" width="10" height="10" rx="2" ry="2" fill="#b89af0"/>
  <rect x="130" y="200" width="10" height="10" rx="2" ry="2" fill="#ffb347"/>
  <rect x="150" y="200" width="10" height="10" rx="2" ry="2" fill="#ff3ca0"/>
  <rect x="200" y="200" width="10" height="10" rx="2" ry="2" fill="#ff3ca0"/>
  <rect x="210" y="200" width="10" height="10" rx="2" ry="2" fill="#52d9b0"/>
  <rect x="220" y="200" width="10" height="10" rx="2" ry="2" fill="#b89af0"/>
  <rect x="230" y="200" width="10" height="10" rx="2" ry="2" fill="#ffb347"/>
  <rect x="240" y="200" width="10" height="10" rx="2" ry="2" fill="#38c8e8"/>
  <rect x="260" y="200" width="10" height="10" rx="2" ry="2" fill="#52d9b0"/>
  <rect x="120" y="210" width="10" height="10" rx="2" ry="2" fill="#52d9b0"/>
  <rect x="160" y="210" width="10" height="10" rx="2" ry="2" fill="#ff3ca0"/>
  <rect x="170" y="210" width="10" height="10" rx="2" ry="2" fill="#52d9b0"/>
  <rect x="180" y="210" width="10" height="10" rx="2" ry="2" fill="#b89af0"/>
  <rect x="190" y="210" width="10" height="10" rx="2" ry="2" fill="#ffb347"/>
  <rect x="200" y="210" width="10" height="10" rx="2" ry="2" fill="#38c8e8"/>
  <rect x="240" y="210" width="10" height="10" rx="2" ry="2" fill="#ffb347"/>
  <rect x="250" y="210" width="10" height="10" rx="2" ry="2" fill="#38c8e8"/>
  <rect x="40" y="220" width="10" height="10" rx="2" ry="2" fill="#ff3ca0"/>
  <rect x="50" y="220" width="10" height="10" rx="2" ry="2" fill="#ff3ca0"/>
  <rect x="60" y="220" width="10" height="10" rx="2" ry="2" fill="#ff3ca0"/>
  <rect x="70" y="220" width="10" height="10" rx="2" ry="2" fill="#ff3ca0"/>
  <rect x="80" y="220" width="10" height="10" rx="2" ry="2" fill="#ff3ca0"/>
  <rect x="90" y="220" width="10" height="10" rx="2" ry="2" fill="#ff3ca0"/>
  <rect x="100" y="220" width="10" height="10" rx="2" ry="2" fill="#ff3ca0"/>
  <rect x="170" y="220" width="10" height="10" rx="2" ry="2" fill="#ff3ca0"/>
  <rect x="180" y="220" width="10" height="10" rx="2" ry="2" fill="#52d9b0"/>
  <rect x="200" y="220" width="10" height="10" rx="2" ry="2" fill="#ffb347"/>
  <rect x="220" y="220" width="10" height="10" rx="2" ry="2" fill="#ff3ca0"/>
  <rect x="240" y="220" width="10" height="10" rx="2" ry="2" fill="#b89af0"/>
  <rect x="260" y="220" width="10" height="10" rx="2" ry="2" fill="#38c8e8"/>
  <rect x="270" y="220" width="10" height="10" rx="2" ry="2" fill="#ff3ca0"/>
  <rect x="280" y="220" width="10" height="10" rx="2" ry="2" fill="#52d9b0"/>
  <rect x="40" y="230" width="10" height="10" rx="2" ry="2" fill="#ff3ca0"/>
  <rect x="100" y="230" width="10" height="10" rx="2" ry="2" fill="#ff3ca0"/>
  <rect x="120" y="230" width="10" height="10" rx="2" ry="2" fill="#38c8e8"/>
  <rect x="130" y="230" width="10" height="10" rx="2" ry="2" fill="#ff3ca0"/>
  <rect x="160" y="230" width="10" height="10" rx="2" ry="2" fill="#ffb347"/>
  <rect x="170" y="230" width="10" height="10" rx="2" ry="2" fill="#38c8e8"/>
  <rect x="200" y="230" width="10" height="10" rx="2" ry="2" fill="#b89af0"/>
  <rect x="240" y="230" width="10" height="10" rx="2" ry="2" fill="#52d9b0"/>
  <rect x="250" y="230" width="10" height="10" rx="2" ry="2" fill="#b89af0"/>
  <rect x="270" y="230" width="10" height="10" rx="2" ry="2" fill="#38c8e8"/>
  <rect x="40" y="240" width="10" height="10" rx="2" ry="2" fill="#ff3ca0"/>
  <rect x="60" y="240" width="10" height="10" rx="2" ry="2" fill="#ff3ca0"/>
  <rect x="70" y="240" width="10" height="10" rx="2" ry="2" fill="#ff3ca0"/>
  <rect x="80" y="240" width="10" height="10" rx="2" ry="2" fill="#ff3ca0"/>
  <rect x="100" y="240" width="10" height="10" rx="2" ry="2" fill="#ff3ca0"/>
  <rect x="120" y="240" width="10" height="10" rx="2" ry="2" fill="#ffb347"/>
  <rect x="160" y="240" width="10" height="10" rx="2" ry="2" fill="#b89af0"/>
  <rect x="180" y="240" width="10" height="10" rx="2" ry="2" fill="#38c8e8"/>
  <rect x="190" y="240" width="10" height="10" rx="2" ry="2" fill="#ff3ca0"/>
  <rect x="200" y="240" width="10" height="10" rx="2" ry="2" fill="#52d9b0"/>
  <rect x="210" y="240" width="10" height="10" rx="2" ry="2" fill="#b89af0"/>
  <rect x="220" y="240" width="10" height="10" rx="2" ry="2" fill="#ffb347"/>
  <rect x="230" y="240" width="10" height="10" rx="2" ry="2" fill="#38c8e8"/>
  <rect x="240" y="240" width="10" height="10" rx="2" ry="2" fill="#ff3ca0"/>
  <rect x="260" y="240" width="10" height="10" rx="2" ry="2" fill="#b89af0"/>
  <rect x="280" y="240" width="10" height="10" rx="2" ry="2" fill="#38c8e8"/>
  <rect x="40" y="250" width="10" height="10" rx="2" ry="2" fill="#ff3ca0"/>
  <rect x="60" y="250" width="10" height="10" rx="2" ry="2" fill="#ff3ca0"/>
  <rect x="70" y="250" width="10" height="10" rx="2" ry="2" fill="#ff3ca0"/>
  <rect x="80" y="250" width="10" height="10" rx="2" ry="2" fill="#ff3ca0"/>
  <rect x="100" y="250" width="10" height="10" rx="2" ry="2" fill="#ff3ca0"/>
  <rect x="120" y="250" width="10" height="10" rx="2" ry="2" fill="#b89af0"/>
  <rect x="130" y="250" width="10" height="10" rx="2" ry="2" fill="#ffb347"/>
  <rect x="190" y="250" width="10" height="10" rx="2" ry="2" fill="#38c8e8"/>
  <rect x="210" y="250" width="10" height="10" rx="2" ry="2" fill="#52d9b0"/>
  <rect x="220" y="250" width="10" height="10" rx="2" ry="2" fill="#b89af0"/>
  <rect x="240" y="250" width="10" height="10" rx="2" ry="2" fill="#38c8e8"/>
  <rect x="250" y="250" width="10" height="10" rx="2" ry="2" fill="#ff3ca0"/>
  <rect x="260" y="250" width="10" height="10" rx="2" ry="2" fill="#52d9b0"/>
  <rect x="270" y="250" width="10" height="10" rx="2" ry="2" fill="#b89af0"/>
  <rect x="280" y="250" width="10" height="10" rx="2" ry="2" fill="#ffb347"/>
  <rect x="40" y="260" width="10" height="10" rx="2" ry="2" fill="#ff3ca0"/>
  <rect x="60" y="260" width="10" height="10" rx="2" ry="2" fill="#ff3ca0"/>
  <rect x="70" y="260" width="10" height="10" rx="2" ry="2" fill="#ff3ca0"/>
  <rect x="80" y="260" width="10" height="10" rx="2" ry="2" fill="#ff3ca0"/>
  <rect x="100" y="260" width="10" height="10" rx="2" ry="2" fill="#ff3ca0"/>
  <rect x="120" y="260" width="10" height="10" rx="2" ry="2" fill="#52d9b0"/>
  <rect x="130" y="260" width="10" height="10" rx="2" ry="2" fill="#b89af0"/>
  <rect x="140" y="260" width="10" height="10" rx="2" ry="2" fill="#ffb347"/>
  <rect x="150" y="260" width="10" height="10" rx="2" ry="2" fill="#38c8e8"/>
  <rect x="160" y="260" width="10" height="10" rx="2" ry="2" fill="#ff3ca0"/>
  <rect x="190" y="260" width="10" height="10" rx="2" ry="2" fill="#ffb347"/>
  <rect x="250" y="260" width="10" height="10" rx="2" ry="2" fill="#38c8e8"/>
  <rect x="260" y="260" width="10" height="10" rx="2" ry="2" fill="#ff3ca0"/>
  <rect x="280" y="260" width="10" height="10" rx="2" ry="2" fill="#b89af0"/>
  <rect x="40" y="270" width="10" height="10" rx="2" ry="2" fill="#ff3ca0"/>
  <rect x="100" y="270" width="10" height="10" rx="2" ry="2" fill="#ff3ca0"/>
  <rect x="140" y="270" width="10" height="10" rx="2" ry="2" fill="#b89af0"/>
  <rect x="150" y="270" width="10" height="10" rx="2" ry="2" fill="#ffb347"/>
  <rect x="180" y="270" width="10" height="10" rx="2" ry="2" fill="#52d9b0"/>
  <rect x="200" y="270" width="10" height="10" rx="2" ry="2" fill="#ffb347"/>
  <rect x="210" y="270" width="10" height="10" rx="2" ry="2" fill="#38c8e8"/>
  <rect x="220" y="270" width="10" height="10" rx="2" ry="2" fill="#ff3ca0"/>
  <rect x="230" y="270" width="10" height="10" rx="2" ry="2" fill="#52d9b0"/>
  <rect x="240" y="270" width="10" height="10" rx="2" ry="2" fill="#b89af0"/>
  <rect x="250" y="270" width="10" height="10" rx="2" ry="2" fill="#ffb347"/>
  <rect x="280" y="270" width="10" height="10" rx="2" ry="2" fill="#52d9b0"/>
  <rect x="40" y="280" width="10" height="10" rx="2" ry="2" fill="#ff3ca0"/>
  <rect x="50" y="280" width="10" height="10" rx="2" ry="2" fill="#ff3ca0"/>
  <rect x="60" y="280" width="10" height="10" rx="2" ry="2" fill="#ff3ca0"/>
  <rect x="70" y="280" width="10" height="10" rx="2" ry="2" fill="#ff3ca0"/>
  <rect x="80" y="280" width="10" height="10" rx="2" ry="2" fill="#ff3ca0"/>
  <rect x="90" y="280" width="10" height="10" rx="2" ry="2" fill="#ff3ca0"/>
  <rect x="100" y="280" width="10" height="10" rx="2" ry="2" fill="#ff3ca0"/>
  <rect x="120" y="280" width="10" height="10" rx="2" ry="2" fill="#38c8e8"/>
  <rect x="140" y="280" width="10" height="10" rx="2" ry="2" fill="#52d9b0"/>
  <rect x="150" y="280" width="10" height="10" rx="2" ry="2" fill="#b89af0"/>
  <rect x="220" y="280" width="10" height="10" rx="2" ry="2" fill="#38c8e8"/>
  <rect x="230" y="280" width="10" height="10" rx="2" ry="2" fill="#ff3ca0"/>
  <rect x="240" y="280" width="10" height="10" rx="2" ry="2" fill="#52d9b0"/>
  <rect x="250" y="280" width="10" height="10" rx="2" ry="2" fill="#b89af0"/>
  <rect x="260" y="280" width="10" height="10" rx="2" ry="2" fill="#ffb347"/>
  <rect x="270" y="280" width="10" height="10" rx="2" ry="2" fill="#38c8e8"/>
  <rect x="280" y="280" width="10" height="10" rx="2" ry="2" fill="#ff3ca0"/>
</svg>